<svg width="40" height="40" viewBox="0 0 40 40" fill="none" xmlns="http://www.w3.org/2000/svg">
<rect width="40" height="40" rx="16" fill="black"/>
<path d="M20 18L22 22V25C22 25.2652 22.1054 25.5196 22.2929 25.7071C22.4804 25.8946 22.7348 26 23 26H25C25.2652 26 25.5196 25.8946 25.7071 25.7071C25.8946 25.5196 26 25.2652 26 25V22C26 19.8783 25.1571 17.8434 23.6569 16.3431C22.1566 14.8429 20.1217 14 18 14C15.8783 14 13.8434 14.8429 12.3431 16.3431C10.8429 17.8434 10 19.8783 10 22V25C10 25.2652 10.1054 25.5196 10.2929 25.7071C10.4804 25.8946 10.7348 26 11 26H13C13.2652 26 13.5196 25.8946 13.7071 25.7071C13.8946 25.5196 14 25.2652 14 25V22L16 18H20Z" stroke="white" stroke-width="2" stroke-linecap="round" stroke-linejoin="round"/>
<path d="M12.8199 15.8999L15.9999 17.9999" stroke="white" stroke-width="2" stroke-linecap="round" stroke-linejoin="round"/>
<path d="M23.18 15.8999L20 17.9999" stroke="white" stroke-width="2" stroke-linecap="round" stroke-linejoin="round"/>
<path d="M24.93 18H28C28.5304 18 29.0391 18.2107 29.4142 18.5858C29.7893 18.9609 30 19.4696 30 20C30 20.5304 29.7893 21.0391 29.4142 21.4142C29.0391 21.7893 28.5304 22 28 22H10" stroke="white" stroke-width="2" stroke-linecap="round" stroke-linejoin="round"/>
</svg>
